{
	"asset":{
		"generator":"Khronos glTF Blender I/O v4.4.55",
		"version":"2.0"
	},
	"scene":0,
	"scenes":[
		{
			"name":"Scene",
			"nodes":[
				4
			]
		}
	],
	"nodes":[
		{
			"name":"Bone.002",
			"rotation":[
				-8.425996567140714e-10,
				4.1997486044387244e-10,
				-0.33852407336235046,
				0.9409577250480652
			],
			"scale":[
				1,
				0.9999998807907104,
				1
			],
			"translation":[
				2.3283069916502086e-10,
				0.15655648708343506,
				-2.0081592638776513e-15
			]
		},
		{
			"children":[
				0
			],
			"name":"Bone.001",
			"rotation":[
				-1.2343168975803565e-07,
				3.369894443494559e-07,
				-0.3415687680244446,
				0.9398568272590637
			],
			"scale":[
				0.9999999403953552,
				0.9999999403953552,
				1
			],
			"translation":[
				-7.450558392463336e-09,
				0.13383597135543823,
				0
			]
		},
		{
			"children":[
				1
			],
			"name":"Bone",
			"rotation":[
				-0.28471115231513977,
				0.6472551822662354,
				0.6472554206848145,
				0.28471165895462036
			],
			"scale":[
				0.9999998211860657,
				0.9999999403953552,
				1
			],
			"translation":[
				0.18572598695755005,
				3.085369826294482e-08,
				-0.0999688059091568
			]
		},
		{
			"mesh":0,
			"name":"BananaMesh",
			"skin":0
		},
		{
			"children":[
				3,
				2
			],
			"name":"BananaArmature"
		}
	],
	"materials":[
		{
			"doubleSided":true,
			"name":"Material",
			"pbrMetallicRoughness":{
				"baseColorTexture":{
					"index":0
				},
				"metallicFactor":0,
				"roughnessFactor":0.5
			}
		}
	],
	"meshes":[
		{
			"name":"Plane",
			"primitives":[
				{
					"attributes":{
						"POSITION":0,
						"NORMAL":1,
						"TEXCOORD_0":2,
						"JOINTS_0":3,
						"WEIGHTS_0":4
					},
					"indices":5,
					"material":0
				}
			]
		}
	],
	"textures":[
		{
			"sampler":0,
			"source":0
		}
	],
	"images":[
		{
			"mimeType":"image/png",
			"name":"GradientMap",
			"uri":"GradientMap.png"
		}
	],
	"skins":[
		{
			"inverseBindMatrices":6,
			"joints":[
				2,
				1,
				0
			],
			"name":"BananaArmature"
		}
	],
	"accessors":[
		{
			"bufferView":0,
			"componentType":5126,
			"count":802,
			"max":[
				0.22650830447673798,
				0.036288678646087646,
				0.0546821728348732
			],
			"min":[
				-0.2367376834154129,
				-0.03628861904144287,
				-0.15418997406959534
			],
			"type":"VEC3"
		},
		{
			"bufferView":1,
			"componentType":5126,
			"count":802,
			"type":"VEC3"
		},
		{
			"bufferView":2,
			"componentType":5126,
			"count":802,
			"type":"VEC2"
		},
		{
			"bufferView":3,
			"componentType":5121,
			"count":802,
			"type":"VEC4"
		},
		{
			"bufferView":4,
			"componentType":5126,
			"count":802,
			"type":"VEC4"
		},
		{
			"bufferView":5,
			"componentType":5123,
			"count":4608,
			"type":"SCALAR"
		},
		{
			"bufferView":6,
			"componentType":5126,
			"count":3,
			"type":"MAT4"
		}
	],
	"bufferViews":[
		{
			"buffer":0,
			"byteLength":9624,
			"byteOffset":0,
			"target":34962
		},
		{
			"buffer":0,
			"byteLength":9624,
			"byteOffset":9624,
			"target":34962
		},
		{
			"buffer":0,
			"byteLength":6416,
			"byteOffset":19248,
			"target":34962
		},
		{
			"buffer":0,
			"byteLength":3208,
			"byteOffset":25664,
			"target":34962
		},
		{
			"buffer":0,
			"byteLength":12832,
			"byteOffset":28872,
			"target":34962
		},
		{
			"buffer":0,
			"byteLength":9216,
			"byteOffset":41704,
			"target":34963
		},
		{
			"buffer":0,
			"byteLength":192,
			"byteOffset":50920
		}
	],
	"samplers":[
		{
			"magFilter":9729,
			"minFilter":9987
		}
	],
	"buffers":[
		{
			"byteLength":51112,
			"uri":"banana.bin"
		}
	]
}
