{
	"asset":{
		"generator":"Khronos glTF Blender I/O v4.4.55",
		"version":"2.0"
	},
	"scene":0,
	"scenes":[
		{
			"name":"Scene",
			"nodes":[
				4
			]
		}
	],
	"nodes":[
		{
			"name":"Bone.002",
			"rotation":[
				0,
				7.105427357601002e-15,
				0,
				1
			],
			"translation":[
				0,
				0.09854298830032349,
				0
			]
		},
		{
			"children":[
				0
			],
			"name":"Bone.001",
			"rotation":[
				0,
				1.1920927533992653e-07,
				0,
				1
			],
			"scale":[
				1,
				0.9999999403953552,
				1
			],
			"translation":[
				0,
				0.08378971368074417,
				0
			]
		},
		{
			"children":[
				1
			],
			"name":"Bone"
		},
		{
			"mesh":0,
			"name":"PineappleMesh",
			"skin":0
		},
		{
			"children":[
				3,
				2
			],
			"name":"PineappleArmature"
		}
	],
	"materials":[
		{
			"doubleSided":true,
			"name":"Material",
			"pbrMetallicRoughness":{
				"baseColorTexture":{
					"index":0
				},
				"metallicFactor":0,
				"roughnessFactor":0.5
			}
		}
	],
	"meshes":[
		{
			"name":"Plane.002",
			"primitives":[
				{
					"attributes":{
						"POSITION":0,
						"NORMAL":1,
						"TEXCOORD_0":2,
						"JOINTS_0":3,
						"WEIGHTS_0":4
					},
					"indices":5,
					"material":0
				}
			]
		}
	],
	"textures":[
		{
			"sampler":0,
			"source":0
		}
	],
	"images":[
		{
			"mimeType":"image/png",
			"name":"GradientMap",
			"uri":"GradientMap.png"
		}
	],
	"skins":[
		{
			"inverseBindMatrices":6,
			"joints":[
				2,
				1,
				0
			],
			"name":"PineappleArmature"
		}
	],
	"accessors":[
		{
			"bufferView":0,
			"componentType":5126,
			"count":20004,
			"max":[
				0.13471448421478271,
				0.3988567292690277,
				0.12801285088062286
			],
			"min":[
				-0.12949170172214508,
				-0.01055123656988144,
				-0.10490989685058594
			],
			"type":"VEC3"
		},
		{
			"bufferView":1,
			"componentType":5126,
			"count":20004,
			"type":"VEC3"
		},
		{
			"bufferView":2,
			"componentType":5126,
			"count":20004,
			"type":"VEC2"
		},
		{
			"bufferView":3,
			"componentType":5121,
			"count":20004,
			"type":"VEC4"
		},
		{
			"bufferView":4,
			"componentType":5126,
			"count":20004,
			"type":"VEC4"
		},
		{
			"bufferView":5,
			"componentType":5123,
			"count":29994,
			"type":"SCALAR"
		},
		{
			"bufferView":6,
			"componentType":5126,
			"count":3,
			"type":"MAT4"
		}
	],
	"bufferViews":[
		{
			"buffer":0,
			"byteLength":240048,
			"byteOffset":0,
			"target":34962
		},
		{
			"buffer":0,
			"byteLength":240048,
			"byteOffset":240048,
			"target":34962
		},
		{
			"buffer":0,
			"byteLength":160032,
			"byteOffset":480096,
			"target":34962
		},
		{
			"buffer":0,
			"byteLength":80016,
			"byteOffset":640128,
			"target":34962
		},
		{
			"buffer":0,
			"byteLength":320064,
			"byteOffset":720144,
			"target":34962
		},
		{
			"buffer":0,
			"byteLength":59988,
			"byteOffset":1040208,
			"target":34963
		},
		{
			"buffer":0,
			"byteLength":192,
			"byteOffset":1100196
		}
	],
	"samplers":[
		{
			"magFilter":9729,
			"minFilter":9987
		}
	],
	"buffers":[
		{
			"byteLength":1100388,
			"uri":"pineapple.bin"
		}
	]
}
