{
	"asset":{
		"generator":"Khronos glTF Blender I/O v4.4.55",
		"version":"2.0"
	},
	"scene":0,
	"scenes":[
		{
			"name":"Scene",
			"nodes":[
				5
			]
		}
	],
	"nodes":[
		{
			"name":"Bone.002",
			"scale":[
				1,
				0.9999999403953552,
				1
			],
			"translation":[
				0,
				0.105174221098423,
				0
			]
		},
		{
			"children":[
				0
			],
			"name":"Bone.001",
			"translation":[
				0,
				0.1113981157541275,
				0
			]
		},
		{
			"children":[
				1
			],
			"name":"Bone",
			"translation":[
				0,
				-0.30858251452445984,
				0
			]
		},
		{
			"name":"neutral_bone",
			"rotation":[
				-0.7071067690849304,
				0,
				0,
				0.7071067690849304
			]
		},
		{
			"mesh":0,
			"name":"WatermelonMesh",
			"skin":0
		},
		{
			"children":[
				4,
				2,
				3
			],
			"name":"WatermelonArmature"
		}
	],
	"materials":[
		{
			"doubleSided":true,
			"name":"Material",
			"pbrMetallicRoughness":{
				"baseColorTexture":{
					"index":0
				},
				"metallicFactor":0,
				"roughnessFactor":0.5
			}
		}
	],
	"meshes":[
		{
			"name":"Sphere",
			"primitives":[
				{
					"attributes":{
						"POSITION":0,
						"NORMAL":1,
						"TEXCOORD_0":2,
						"JOINTS_0":3,
						"WEIGHTS_0":4
					},
					"indices":5,
					"material":0
				}
			]
		}
	],
	"textures":[
		{
			"sampler":0,
			"source":0
		}
	],
	"images":[
		{
			"mimeType":"image/png",
			"name":"GradientMap",
			"uri":"GradientMap.png"
		}
	],
	"skins":[
		{
			"inverseBindMatrices":6,
			"joints":[
				2,
				1,
				0,
				3
			],
			"name":"WatermelonArmature"
		}
	],
	"accessors":[
		{
			"bufferView":0,
			"componentType":5126,
			"count":1510,
			"max":[
				0.3152473270893097,
				-0.00036001246189698577,
				0.31524723768234253
			],
			"min":[
				-0.3148278295993805,
				-0.3164319396018982,
				-0.3149327337741852
			],
			"type":"VEC3"
		},
		{
			"bufferView":1,
			"componentType":5126,
			"count":1510,
			"type":"VEC3"
		},
		{
			"bufferView":2,
			"componentType":5126,
			"count":1510,
			"type":"VEC2"
		},
		{
			"bufferView":3,
			"componentType":5121,
			"count":1510,
			"type":"VEC4"
		},
		{
			"bufferView":4,
			"componentType":5126,
			"count":1510,
			"type":"VEC4"
		},
		{
			"bufferView":5,
			"componentType":5123,
			"count":4704,
			"type":"SCALAR"
		},
		{
			"bufferView":6,
			"componentType":5126,
			"count":4,
			"type":"MAT4"
		}
	],
	"bufferViews":[
		{
			"buffer":0,
			"byteLength":18120,
			"byteOffset":0,
			"target":34962
		},
		{
			"buffer":0,
			"byteLength":18120,
			"byteOffset":18120,
			"target":34962
		},
		{
			"buffer":0,
			"byteLength":12080,
			"byteOffset":36240,
			"target":34962
		},
		{
			"buffer":0,
			"byteLength":6040,
			"byteOffset":48320,
			"target":34962
		},
		{
			"buffer":0,
			"byteLength":24160,
			"byteOffset":54360,
			"target":34962
		},
		{
			"buffer":0,
			"byteLength":9408,
			"byteOffset":78520,
			"target":34963
		},
		{
			"buffer":0,
			"byteLength":256,
			"byteOffset":87928
		}
	],
	"samplers":[
		{
			"magFilter":9729,
			"minFilter":9987
		}
	],
	"buffers":[
		{
			"byteLength":88184,
			"uri":"watermelon.bin"
		}
	]
}
